<svg xmlns="http://www.w3.org/2000/svg" viewBox="0 0 243.99 38.22"><defs><style>.cls-1{fill:#1e88e5;}</style></defs><title>our vision</title><path class="cls-1" d="M243.7,7.25a5.54,5.54,0,0,0,.17-.58c0-.1,0-.21,0-.31a5.54,5.54,0,0,0,.07-.81v0a5.5,5.5,0,1,0-9.19,4.06c-13.53.23-52.05-.11-58.67-.11h-31c-7.86,0-15.13,2.18-21.14,7.26a30.58,30.58,0,0,0-8.72-5.25c-4.68-1.81-9.42-2-14.32-2H9.33A5.49,5.49,0,1,0,0,5.4s0,.06,0,.09v0A5.5,5.5,0,0,0,5.5,11l.39,0c.75,0,1.52,0,2.27,0h96.28a28.81,28.81,0,0,1,19,7.27,28.16,28.16,0,0,0-6.38,9.12L124,38.22,131,27.38h0a28.07,28.07,0,0,0-6.38-9.11A28.68,28.68,0,0,1,136.09,12c4-1.1,8-1,12.14-1h89.92l.34,0a5.46,5.46,0,0,0,2.7-.71,4,4,0,0,0,.58-.36c.06,0,.11-.1.17-.15a2.61,2.61,0,0,0,.31-.27,4.93,4.93,0,0,0,1.07-1.38.83.83,0,0,0,.07-.13A5.39,5.39,0,0,0,243.7,7.25Z"/></svg>