<svg xmlns="http://www.w3.org/2000/svg" xmlns:xlink="http://www.w3.org/1999/xlink" version="1.1" id="Layer_1" x="0px" y="0px" viewBox="0 0 509 26" style="enable-background:new 0 0 509 26;" xml:space="preserve"><style type="text/css">
	.st0{fill:#1E88E5;}
</style><g><g><path class="st0" d="M500.3,6.7l-3.1,3.1l2.4,2.4c0,0,0,0-0.1,0c-4.4,0-8.8,0-13.1,0c-4,0-8.1,0-12.1,0l-2.7-2.7l-2.7,2.7    c-0.5,0-1,0-1.5,0l-2.7-2.7l-2.7,2.7c-3.7,0-7.5,0-11.2,0c-6.4,0-12.7,0-19.1,0l-2.1-2.1l-2.1,2.1c-0.5,0-1,0-1.5,0l-2.1-2.1    l-2.1,2.1c-7.9,0-15.8,0-23.7,0c-2.6,0-5.3,0-7.9,0l-2.1-2.1l-2.1,2.1c-0.5,0-1,0-1.5,0l-2.1-2.1l-2.1,2.1c-10.5,0-21,0-31.6,0    l-2.1-2.1l-2.1,2.1c-0.5,0-1,0-1.5,0l-2.1-2.1l-2.1,2.1c-1.7,0-3.4,0-5.2,0c-8.8,0-17.6,0-26.4,0l-2.1-2.1l-2.1,2.1    c-0.5,0-1,0-1.5,0l-2.1-2.1l-2.1,2.1c-9.7,0-19.4,0-29,0l5.8-5.8L267.5,0L261,6.5l5.8,5.8c-1.2,0-2.5,0-3.7,0c-2.6,0-5.2,0-7.8,0    l5.8-5.8L254.4,0l-6.5,6.5l5.8,5.8c-3.8,0-7.7,0-11.5,0l5.8-5.8L241.4,0l-6.5,6.5l5.8,5.8c-9.6,0-19.3,0-28.9,0L209,9.6l-2.7,2.7    c-0.5,0-1,0-1.5,0L202,9.6l-2.7,2.7c-2.4,0-4.9,0-7.3,0c-7.7,0-15.3,0-23,0l-2.1-2.1l-2.1,2.1c-0.5,0-1,0-1.5,0l-2.1-2.1l-2.1,2.1    c-10.5,0-21,0-31.6,0l-2.1-2.1l-2.1,2.1c-0.5,0-1,0-1.5,0l-2.1-2.1l-2.1,2.1c-10.5,0-21,0-31.6,0l-2-2.1l-2.1,2.1    c-0.5,0-1,0-1.5,0l-2.1-2.1l-2.1,2.1c-2.2,0-4.5,0-6.7,0c-8.3,0-16.6,0-24.9,0l-2.1-2.1l-2.1,2.1c-0.5,0-1,0-1.5,0l-2.1-2.1    l-2.1,2.1c-1.8,0-3.6,0-5.4,0c-6.4,0-12.7-0.1-19.1,0c-0.2,0-0.5,0-0.7,0l2.4-2.4L8.7,6.7L5.6,9.9L8.7,13v0.1l-3.1,3.1l3.1,3.1    l3.1-3.1l-2.4-2.4c4.3,0,8.7,0,13,0c4.1,0,8.1,0,12.2,0l2.1,2.1l2.1-2.1c0.5,0,1,0,1.5,0l2.1,2.1l2.1-2.1c4.5,0,9.1,0,13.6,0    c6,0,12,0,18,0l2.1,2.1l2.1-2.1c0.5,0,1,0,1.5,0l2.1,2.1l2.1-2.1c8.3,0,16.5,0,24.8,0c2.3,0,4.5,0,6.8,0l2.1,2.1l2.1-2.1    c0.5,0,1,0,1.5,0l2.1,2.1l2.1-2.1c10.5,0,21,0,31.6,0l2.1,2.1l2.1-2.1c0.5,0,1,0,1.5,0l2.1,2.1l2.1-2.1c2.1,0,4.2,0,6.3,0    c8,0,16,0,24,0l2.7,2.7l2.7-2.7c0.5,0,1,0,1.5,0l2.7,2.7l2.7-2.7c9.6,0,19.3,0,28.9,0l-5.8,5.8l6.5,6.5l6.5-6.5l-5.8-5.8    c1.2,0,2.5,0,3.7,0c2.6,0,5.2,0,7.8,0l-5.8,5.8l6.5,6.5l6.5-6.5l-5.8-5.8c3.8,0,7.7,0,11.5,0l-5.8,5.8l6.5,6.5l6.5-6.5l-5.8-5.8    c9.7,0,19.4,0,29,0l2.1,2.1l2.1-2.1c0.5,0,1,0,1.5,0l2.1,2.1l2.1-2.1c3.2,0,6.4,0,9.7,0c7.3,0,14.6,0,21.9,0l2.1,2.1l2.1-2.1    c0.5,0,1,0,1.5,0l2.1,2.1l2.1-2.1c10.5,0,21,0,31.6,0l2.1,2.1l2.1-2.1c0.5,0,1,0,1.5,0l2.1,2.1l2.1-2.1c10.5,0,21,0,31.6,0    l2.1,2.1l2.1-2.1c0.5,0,1,0,1.5,0l2.1,2.1l2.1-2.1c2.6,0,5.2,0,7.8,0c7.5,0,15,0,22.5,0l2.7,2.7l2.7-2.7c0.5,0,1,0,1.5,0l2.7,2.7    l2.7-2.7c1.8,0,3.5,0,5.3,0c6.4,0,12.7,0.1,19.1,0c0.3,0,0.6,0,0.8,0c0,0,0,0,0.1,0l-2.4,2.4l3.1,3.1l3.1-3.1l-3.1-3.1l3.1-3.1    L500.3,6.7z M500.2,13.1c0-0.1,0-0.1,0-0.2V13.1L500.2,13.1z M506.5,10.6L504,13l2.5,2.4L509,13L506.5,10.6z M0,13l2.5,2.4L4.9,13    l-2.5-2.4L0,13z"/></g></g></svg>