<svg width="100" height="32" viewBox="0 0 100 32" fill="none" xmlns="http://www.w3.org/2000/svg">
<g clip-path="url(#clip0_4_1584)">
<path d="M0 10.2355H7.00105L10.4644 20.9883H10.5362L13.9995 10.2501H21.0057L14.7527 27.5777H5.9149L0 10.2355Z" fill="white"/>
<path d="M22.0002 10.216L30.0003 10.1843V27.5632H22.0002V10.216Z" fill="white"/>
<path d="M56.9993 0.336956H64.9994V27.5633H56.9993V0.336956Z" fill="#139DFF"/>
<path d="M22.0002 0.336956L31.1941 4.04898L22.0002 7.76099V0.336956Z" fill="white"/>
<path d="M99.9052 27.7804L94.3617 22.4942C95.5708 20.2977 96.0703 17.457 96.0703 14.0183C96.0627 4.54423 90.6832 0 81.5201 0C71.9829 0 67.0005 4.54423 67.0005 14.0183C67.0005 23.7804 71.5884 28.0366 81.5201 28.0366C85.0628 28.0366 87.8269 27.5314 89.9505 26.5455L95.6733 32L99.9052 27.7804ZM74.624 14.0183C74.624 9.70348 77.283 7.2532 81.5201 7.2532C85.7571 7.2532 88.4596 9.69372 88.4161 14.0183C88.3776 18.6748 85.6956 20.7444 81.5201 20.7858C77.2549 20.8395 74.624 18.3331 74.624 14.0183Z" fill="#139DFF"/>
<path d="M47.0065 0.336956V11.6365H46.8912C45.6103 10.1722 43.5328 9.61823 40.8969 9.61823C34.9358 9.61823 31.5544 13.1033 31.5544 18.919C31.5544 24.8617 34.4824 28.1466 41.0326 28.1466C43.5354 28.1466 46.2303 27.4144 47.2806 25.8745H47.36V27.5633H53.9998V0.336956H47.0065ZM42.4723 22.365C40.5075 22.3943 39.2958 21.1033 39.2958 18.8824C39.2958 16.6615 40.5203 15.4022 42.4723 15.4022C44.4243 15.4022 45.6693 16.664 45.6488 18.8824C45.6283 21.279 44.3961 22.3382 42.4723 22.365Z" fill="white"/>
</g>
<defs>
<clipPath id="clip0_4_1584">
<rect width="100" height="32" fill="white"/>
</clipPath>
</defs>
</svg>
